<svg width="258px" height="155px"
    xmlns="http://www.w3.org/2000/svg" version="1.1"
    xmlns:xlink="http://www.w3.org/1999/xlink">
    <g id="root" stroke="none" stroke-width="1" fill="none" fill-rule="evenodd">
        <g id="plant" transform="translate(1.000000, 2.000000)" fill-rule="nonzero">
            <g id="lotus" fill="#7ED321">
                <path d="M74.702 80.532c35.346 11.242 53.298 54.004 53.298 54.004c0 0 -39.356 24.538 -74.702 13.297c-35.346 -11.24 -53.298 -54.004 -53.298 -54.004c0 0 39.355 -24.537 74.702 -13.296z" id="Shape"./>
                <path d="M117.166 59.438c21.772 30.028 10.834 75.098 10.834 75.098c0 0 -46.237 -3.614 -68.01 -33.643c-21.772 -30.028 -10.834 -75.099 -10.834 -75.099c0 0 46.238 3.616 68.01 33.644z" id="Shape"./>
                <path d="M181.298 80.532c-35.346 11.242 -53.298 54.004 -53.298 54.004c0 0 39.356 24.538 74.702 13.297c35.346 -11.24 53.298 -54.004 53.298 -54.004c0 0 -39.356 -24.537 -74.702 -13.296z" id="Shape"./>
                <path d="M138.834 59.438c-21.772 30.028 -10.834 75.098 -10.834 75.098c0 0 46.238 -3.614 68.01 -33.643c21.772 -30.028 10.834 -75.099 10.834 -75.099c0 0 -46.238 3.616 -68.01 33.644z" id="Shape"./>
                <path d="M163.311 67.378c0 37.09 -35.311 67.158 -35.311 67.158c0 0 -35.311 -30.067 -35.311 -67.158c0 -37.09 35.311 -67.159 35.311 -67.159c0 0 35.311 30.069 35.311 67.159z" id="Shape"./>
            </g>
            <g id="tints" fill="#FFF">
                <path d="M74.702 80.532c35.346 11.242 53.298 54.004 53.298 54.004c0 0 -39.356 24.538 -74.702 13.297c-35.346 -11.24 -53.298 -54.004 -53.298 -54.004c0 0 39.355 -24.537 74.702 -13.296z" id="shape.accent" opacity=".5" fill="#213458"./>
                <path d="M117.166 59.438c21.772 30.028 10.834 75.098 10.834 75.098c0 0 -46.237 -3.614 -68.01 -33.643c-21.772 -30.028 -10.834 -75.099 -10.834 -75.099c0 0 46.238 3.616 68.01 33.644z" id="shape.accent" opacity=".4" fill="#213458"./>
                <path d="M181.298 80.532c-35.346 11.242 -53.298 54.004 -53.298 54.004c0 0 39.356 24.538 74.702 13.297c35.346 -11.24 53.298 -54.004 53.298 -54.004c0 0 -39.356 -24.537 -74.702 -13.296z" id="shape.accent" opacity=".1" fill="#213458"./>
                <path d="M138.834 59.438c-21.772 30.028 -10.834 75.098 -10.834 75.098c0 0 46.238 -3.614 68.01 -33.643c21.772 -30.028 10.834 -75.099 10.834 -75.099c0 0 -46.238 3.616 -68.01 33.644z" id="shape.accent" opacity=".2" fill="#213458"./>
                <path d="M163.311 67.378c0 37.09 -35.311 67.158 -35.311 67.158c0 0 -35.311 -30.067 -35.311 -67.158c0 -37.09 35.311 -67.159 35.311 -67.159c0 0 35.311 30.069 35.311 67.159z" id="shape.accent" opacity=".3" fill="#213458"./>
            </g>
        </g>
    </g>
</svg>
