<svg xmlns="http://www.w3.org/2000/svg" width="258" height="155"><g fill="none"><g fill="#7ED321"><path d="M75.702 82.532C111.048 93.774 129 136.536 129 136.536s-39.356 24.538-74.702 13.297C18.952 138.593 1 95.829 1 95.829s39.355-24.537 74.702-13.296z"/><path d="M118.166 61.438C139.938 91.466 129 136.536 129 136.536s-46.237-3.614-68.01-33.643C39.218 72.865 50.156 27.794 50.156 27.794s46.238 3.616 68.01 33.644zm64.132 21.094C146.952 93.774 129 136.536 129 136.536s39.356 24.538 74.702 13.297C239.048 138.593 257 95.829 257 95.829s-39.356-24.537-74.702-13.296z"/><path d="M139.834 61.438C118.062 91.466 129 136.536 129 136.536s46.238-3.614 68.01-33.643c21.772-30.028 10.834-75.099 10.834-75.099s-46.238 3.616-68.01 33.644z"/><path d="M164.311 69.378c0 37.09-35.311 67.158-35.311 67.158s-35.311-30.067-35.311-67.158C93.689 32.288 129 2.219 129 2.219s35.311 30.069 35.311 67.159z"/></g><g fill="#213458"><path d="M75.702 82.532C111.048 93.774 129 136.536 129 136.536s-39.356 24.538-74.702 13.297C18.952 138.593 1 95.829 1 95.829s39.355-24.537 74.702-13.296z" opacity=".5"/><path d="M118.166 61.438C139.938 91.466 129 136.536 129 136.536s-46.237-3.614-68.01-33.643C39.218 72.865 50.156 27.794 50.156 27.794s46.238 3.616 68.01 33.644z" opacity=".4"/><path d="M182.298 82.532C146.952 93.774 129 136.536 129 136.536s39.356 24.538 74.702 13.297C239.048 138.593 257 95.829 257 95.829s-39.356-24.537-74.702-13.296z" opacity=".1"/><path d="M139.834 61.438C118.062 91.466 129 136.536 129 136.536s46.238-3.614 68.01-33.643c21.772-30.028 10.834-75.099 10.834-75.099s-46.238 3.616-68.01 33.644z" opacity=".2"/><path d="M164.311 69.378c0 37.09-35.311 67.158-35.311 67.158s-35.311-30.067-35.311-67.158C93.689 32.288 129 2.219 129 2.219s35.311 30.069 35.311 67.159z" opacity=".3"/></g></g></svg>