<?xml version="1.0" standalone="no"?>
<!DOCTYPE svg PUBLIC "-//W3C//DTD SVG 20010904//EN"
 "http://www.w3.org/TR/2001/REC-SVG-20010904/DTD/svg10.dtd">
<svg version="1.0" xmlns="http://www.w3.org/2000/svg"
 width="1032.000000pt" height="1032.000000pt" viewBox="0 0 1032.000000 1032.000000"
 preserveAspectRatio="xMidYMid meet">
<metadata>
Created by potrace 1.11, written by Peter Selinger 2001-2013
</metadata>
<g transform="translate(0.000000,1032.000000) scale(0.100000,-0.100000)"
fill="#000000" stroke="none">
<path d="M5019 8038 c-150 -149 -229 -233 -308 -327 -29 -35 -58 -70 -64 -76
-22 -23 -159 -202 -207 -271 -14 -19 -34 -47 -46 -62 -17 -23 -65 -98 -193
-302 -26 -41 -87 -158 -142 -270 -78 -161 -79 -162 -79 -175 0 -6 -6 -19 -13
-29 -12 -17 -18 -15 -83 25 -99 61 -381 200 -504 249 -58 23 -116 47 -130 53
-14 5 -29 11 -35 13 -5 1 -48 16 -95 32 -258 91 -630 185 -855 217 -23 3 -50
7 -60 9 -27 5 -144 18 -175 20 -24 1 -26 -4 -42 -84 -10 -47 -19 -98 -22 -115
-2 -16 -5 -30 -6 -30 -1 0 -3 -16 -5 -35 -2 -19 -6 -53 -9 -75 -8 -54 -18
-134 -22 -165 -1 -14 -3 -25 -4 -25 0 0 -3 -31 -5 -70 -2 -38 -7 -122 -11
-185 -16 -264 -2 -658 31 -870 3 -19 8 -51 11 -70 6 -48 12 -80 19 -110 3 -14
7 -38 10 -55 3 -16 8 -42 11 -57 3 -15 6 -31 6 -35 1 -5 7 -27 14 -50 l13 -43
-27 -1 c-15 -1 -36 -3 -47 -4 -11 -1 -47 -5 -80 -9 -62 -7 -82 -10 -150 -21
-22 -3 -53 -8 -70 -10 -33 -4 -250 -50 -305 -65 -267 -71 -589 -182 -785 -270
-157 -71 -445 -218 -493 -251 l-23 -17 28 -58 c15 -33 31 -60 36 -62 4 -2 7
-9 7 -16 0 -12 38 -89 88 -176 15 -25 27 -51 28 -59 2 -7 12 -23 23 -35 12
-12 21 -26 21 -31 0 -10 131 -224 169 -275 14 -19 31 -42 36 -51 31 -50 202
-281 241 -325 11 -12 35 -41 54 -64 203 -247 491 -511 735 -673 55 -37 105
-70 110 -75 75 -56 477 -239 562 -257 10 -2 38 -10 63 -18 25 -8 72 -21 105
-27 33 -7 67 -15 75 -18 22 -8 86 -18 168 -28 24 -3 61 -7 81 -10 20 -2 59 -6
86 -9 67 -5 361 -6 405 0 19 2 71 6 115 10 44 3 91 7 104 10 13 2 49 7 80 11
31 3 65 8 76 11 11 2 31 6 45 7 14 2 35 6 48 10 12 4 37 10 55 13 18 2 39 6
47 7 8 1 24 5 35 9 11 3 31 8 45 11 45 9 184 47 270 74 47 14 88 26 92 26 3 1
10 4 14 9 4 4 14 7 21 7 14 0 252 88 323 118 19 9 37 16 40 17 51 15 377 172
504 243 l89 50 36 -22 c20 -13 65 -38 101 -56 36 -19 72 -39 80 -46 8 -7 17
-12 20 -12 5 0 194 -86 222 -102 45 -25 349 -143 486 -189 202 -68 498 -146
627 -165 11 -2 20 -4 20 -5 0 -1 18 -4 40 -6 53 -6 114 -14 144 -20 100 -19
582 -27 716 -12 105 13 237 36 320 57 44 11 91 23 104 26 13 3 32 9 43 15 10
5 18 7 18 3 0 -3 7 -1 15 6 8 7 15 10 15 6 0 -3 17 1 38 10 20 9 42 17 47 18
10 3 53 19 90 35 131 54 482 249 505 280 3 4 28 22 55 41 53 35 179 137 255
205 76 69 273 267 325 329 28 33 55 64 60 70 22 23 171 212 195 246 17 26 65
89 80 107 5 7 10 15 10 19 0 3 14 23 30 44 17 21 30 43 30 49 0 6 3 11 8 11 4
0 21 23 37 51 17 28 37 62 45 74 46 70 166 286 219 395 34 69 66 132 71 141
11 21 3 31 -50 62 -64 37 -324 168 -395 199 -123 55 -171 75 -205 88 -19 7
-48 19 -65 26 -31 13 -158 58 -260 92 -57 20 -189 59 -224 68 -9 2 -34 8 -56
14 -43 11 -69 18 -100 24 -11 2 -38 9 -60 14 -43 12 -57 15 -185 36 -119 21
-152 25 -228 32 -37 4 -74 8 -82 9 -8 2 -25 4 -36 4 -20 1 -21 4 -12 39 5 20
14 57 19 82 5 25 12 55 14 68 6 25 13 63 20 107 3 17 7 39 9 50 2 11 7 47 11
80 4 33 9 76 12 95 29 210 33 633 8 925 -2 22 -6 69 -9 105 -3 36 -8 81 -11
100 -2 19 -7 57 -10 83 -7 59 -31 203 -47 277 -6 30 -11 58 -10 62 1 4 -15 5
-36 3 -79 -9 -138 -16 -167 -22 -16 -3 -41 -6 -55 -8 -37 -4 -81 -13 -220 -42
-69 -14 -132 -27 -140 -28 -8 -1 -22 -5 -30 -8 -13 -6 -44 -13 -90 -21 -8 -2
-22 -6 -30 -9 -17 -7 -118 -36 -146 -42 -11 -2 -57 -17 -104 -33 -47 -16 -89
-30 -95 -32 -5 -1 -14 -4 -20 -5 -5 -2 -19 -6 -30 -11 -11 -4 -22 -8 -25 -9
-3 -1 -14 -5 -25 -10 -11 -4 -75 -29 -142 -56 -110 -44 -411 -184 -423 -198
-6 -7 -33 -22 -99 -58 -25 -13 -53 -31 -62 -39 -16 -14 -18 -13 -24 8 -38 122
-249 514 -387 718 -47 70 -128 182 -137 190 -4 3 -19 24 -34 48 -15 23 -32 42
-37 42 -6 0 -10 6 -10 13 0 7 -10 23 -22 37 -13 14 -45 52 -72 85 -28 33 -57
67 -65 76 -9 9 -34 38 -56 65 -50 60 -364 374 -374 374 -5 0 -69 -60 -142
-132z"./>
</g>
</svg>
